HIERARCHY
ROOT Hips
{
	OFFSET 0.00000 0.00000 0.00000
	CHANNELS 6 Xposition Yposition Zposition Zrotation Yrotation Xrotation 
	JOINT LHipJoint
	{
		OFFSET 0 0 0
		CHANNELS 3 Zrotation Yrotation Xrotation
		JOINT LeftUpLeg
		{
			OFFSET 1.75344 -1.53157 0.77399
			CHANNELS 3 Zrotation Yrotation Xrotation
			JOINT LeftLeg
			{
				OFFSET 2.25415 -6.19323 0.00000
				CHANNELS 3 Zrotation Yrotation Xrotation
				JOINT LeftFoot
				{
					OFFSET 2.30342 -6.32861 0.00000
					CHANNELS 3 Zrotation Yrotation Xrotation
					JOINT LeftToeBase
					{
						OFFSET 0.10958 -0.30108 1.49206
						CHANNELS 3 Zrotation Yrotation Xrotation
						End Site
						{
							OFFSET 0.00000 -0.00000 0.77783
						}
					}
				}
			}
		}
	}
	JOINT RHipJoint
	{
		OFFSET 0 0 0
		CHANNELS 3 Zrotation Yrotation Xrotation
		JOINT RightUpLeg
		{
			OFFSET -1.81912 -1.53156 0.77399
			CHANNELS 3 Zrotation Yrotation Xrotation
			JOINT RightLeg
			{
				OFFSET -2.22882 -6.12365 0.00000
				CHANNELS 3 Zrotation Yrotation Xrotation
				JOINT RightFoot
				{
					OFFSET -2.21943 -6.09785 0.00000
					CHANNELS 3 Zrotation Yrotation Xrotation
					JOINT RightToeBase
					{
						OFFSET -0.18931 -0.52012 1.59379
						CHANNELS 3 Zrotation Yrotation Xrotation
						End Site
						{
							OFFSET -0.00000 -0.00000 0.84686
						}
					}
				}
			}
		}
	}
	JOINT LowerBack
	{
		OFFSET 0 0 0
		CHANNELS 3 Zrotation Yrotation Xrotation
		JOINT Spine
		{
			OFFSET -0.00200 1.66634 -0.14248
			CHANNELS 3 Zrotation Yrotation Xrotation
			JOINT Spine1
			{
				OFFSET -0.00875 1.64542 0.09514
				CHANNELS 3 Zrotation Yrotation Xrotation
				JOINT Neck
				{
					OFFSET 0 0 0
					CHANNELS 3 Zrotation Yrotation Xrotation
					JOINT Neck1
					{
						OFFSET 0.02257 1.59605 0.00839
						CHANNELS 3 Zrotation Yrotation Xrotation
						JOINT Head
						{
							OFFSET -0.10214 1.57530 -0.23335
							CHANNELS 3 Zrotation Yrotation Xrotation
							End Site
							{
								OFFSET -0.03588 1.60717 -0.08062
							}
						}
					}
				}
				JOINT LeftShoulder
				{
					OFFSET 0 0 0
					CHANNELS 3 Zrotation Yrotation Xrotation
					JOINT LeftArm
					{
						OFFSET 2.54983 1.10186 0.40078
						CHANNELS 3 Zrotation Yrotation Xrotation
						JOINT LeftForeArm
						{
							OFFSET 4.28840 -0.00000 0.00000
							CHANNELS 3 Zrotation Yrotation Xrotation
							JOINT LeftHand
							{
								OFFSET 3.06552 -0.00000 -0.00000
								CHANNELS 3 Zrotation Yrotation Xrotation
								JOINT LeftFingerBase
								{
									OFFSET 0 0 0
									CHANNELS 3 Zrotation Yrotation Xrotation
									JOINT LeftHandIndex1
									{
										OFFSET 0.75304 -0.00000 0.00000
										CHANNELS 3 Zrotation Yrotation Xrotation
										End Site
										{
											OFFSET 0.60712 -0.00000 0.00000
										}
									}
								}
								JOINT LThumb
								{
									OFFSET 0 0 0
									CHANNELS 3 Zrotation Yrotation Xrotation
									End Site
									{
										OFFSET 0.61639 -0.00000 0.61639
									}
								}
							}
						}
					}
				}
				JOINT RightShoulder
				{
					OFFSET 0 0 0
					CHANNELS 3 Zrotation Yrotation Xrotation
					JOINT RightArm
					{
						OFFSET -2.60909 1.35448 0.21802
						CHANNELS 3 Zrotation Yrotation Xrotation
						JOINT RightForeArm
						{
							OFFSET -4.52172 -0.00000 -0.00000
							CHANNELS 3 Zrotation Yrotation Xrotation
							JOINT RightHand
							{
								OFFSET -2.89140 -0.00000 0.00000
								CHANNELS 3 Zrotation Yrotation Xrotation
								JOINT RightFingerBase
								{
									OFFSET 0 0 0
									CHANNELS 3 Zrotation Yrotation Xrotation
									JOINT RightHandIndex1
									{
										OFFSET -0.68054 -0.00000 0.00000
										CHANNELS 3 Zrotation Yrotation Xrotation
										End Site
										{
											OFFSET -0.54867 -0.00000 0.00000
										}
									}
								}
								JOINT RThumb
								{
									OFFSET 0 0 0
									CHANNELS 3 Zrotation Yrotation Xrotation
									End Site
									{
										OFFSET -0.55705 -0.00000 0.55705
									}
								}
							}
						}
					}
				}
			}
		}
	}
}
MOTION
Frames: 9
Frame Time: .0083333
8.9742 14.6173 23.1727 -177.0710 5.3612 190.7650 0.0000 0.0000 0.0000 -16.9246 -7.5452 -37.1234 8.5955 16.5402 54.6803 3.0808 5.2502 -35.2975 1.1825 -6.9013 -19.4233 0.0000 0.0000 0.0000 24.8296 12.6704 -29.9232 -6.4127 -14.8167 46.6162 -1.9103 -8.8894 -30.5692 -0.3385 3.7390 -10.3434 2.1663 -0.9593 16.5966 1.6986 -0.5765 -2.3545 0.7910 -0.3236 -11.9766 -2.4815 0.3254 -11.4130 4.1717 1.8694 -8.6426 1.7741 1.4276 -0.8675 -0.0000 0.0000 0.0000 -76.3735 3.3342 7.4575 22.6575 -33.7122 -6.9473 -0.0000 -0.0000 4.5547 -2.7909 -30.4852 1.4167 -7.1250 0.0000 -0.0000 -19.3190 0.9086 20.2005 -0.0000 0.0000 0.0000 73.3174 -1.0247 -2.9946 -21.7915 32.7406 -6.4727 0.0000 0.0000 3.8832 -9.1463 -53.9525 7.4168 7.1250 -0.0000 -0.0000 71.4928 -74.9053 -56.1146
8.9701 14.5720 23.1773 -177.0110 5.0774 191.1530 0.0000 0.0000 0.0000 -16.8301 -7.5346 -38.3523 8.9211 16.7566 55.8167 3.1035 5.0840 -35.3422 1.1684 -6.8615 -19.3056 0.0000 0.0000 0.0000 24.7823 12.6225 -31.0278 -6.7021 -15.0758 47.7384 -1.9643 -8.9964 -30.9751 -0.3998 4.0598 -11.2451 2.1339 -0.9773 17.0781 1.7981 -0.5711 -2.5595 0.9323 -0.3146 -12.4935 -2.4705 0.3392 -11.3487 4.0606 1.9196 -8.9256 1.7351 1.4627 -0.9690 -0.0000 -0.0000 0.0000 -75.7525 3.7132 8.5528 23.2636 -34.3758 -7.2866 -0.0000 -0.0000 4.5885 -1.2357 -31.0173 0.6368 -7.1250 0.0000 -0.0000 -18.4614 0.3105 19.3984 -0.0000 -0.0000 0.0000 72.6826 -0.6212 -4.1859 -21.6021 32.5245 -6.3706 0.0000 0.0000 1.3528 -8.7498 -54.6545 7.1556 7.1250 -0.0000 -0.0000 74.1969 -74.9109 -58.6675
8.9658 14.5180 23.1840 -176.9410 4.7834 191.5360 0.0000 0.0000 0.0000 -16.7255 -7.5175 -39.5993 9.2514 16.9668 56.9557 3.1178 4.8886 -35.3308 1.1960 -6.9391 -19.5352 0.0000 0.0000 0.0000 24.7385 12.5640 -32.1853 -7.0179 -15.3469 48.9419 -2.0239 -9.0105 -31.3500 -0.4207 4.1631 -11.5359 2.1129 -1.0357 17.6132 1.8888 -0.6159 -2.7514 1.0739 -0.3289 -13.0306 -2.4204 0.3627 -11.3430 3.9574 1.9943 -9.2705 1.6928 1.5147 -1.0815 -0.0000 0.0000 0.0000 -75.1876 4.0980 9.5710 23.7828 -34.9338 -7.5818 -0.0000 -0.0000 4.5093 1.3759 -31.6359 -0.7218 -7.1250 0.0000 -0.0000 -17.0306 -0.4727 17.9813 -0.0000 0.0000 0.0000 72.1400 0.1973 -5.5577 -21.2933 32.1692 -6.2054 0.0000 -0.0000 -1.1712 -9.0285 -55.9752 7.5022 7.1250 -0.0000 -0.0000 79.0780 -75.2128 -63.7104
8.9634 14.4579 23.1929 -176.9270 4.4653 191.8860 0.0000 0.0000 0.0000 -16.7001 -7.4408 -40.8505 9.5952 17.1759 58.1267 3.1859 4.3593 -35.4599 1.0901 -6.6354 -18.6397 0.0000 0.0000 0.0000 24.6259 12.4972 -33.3577 -7.3600 -15.6277 50.2232 -2.1101 -8.8670 -31.7807 -0.4104 4.1123 -11.3928 2.0251 -1.0483 18.1647 1.9791 -0.6146 -2.8822 1.2406 -0.3152 -13.5085 -2.4216 0.3560 -11.7277 3.8267 2.0332 -9.3732 1.6546 1.5565 -1.0524 0.0000 -0.0000 0.0000 -74.6546 4.3742 10.6856 24.2285 -35.4049 -7.8385 -0.0000 -0.0000 4.4544 4.1766 -32.5721 -2.2514 -7.1250 0.0000 -0.0000 -15.5135 -1.6289 16.5605 0.0000 -0.0000 0.0000 71.5617 1.2425 -8.0256 -20.7170 31.4965 -5.9014 0.0000 -0.0000 -1.3029 -5.2987 -56.4410 4.4193 7.1250 -0.0000 -0.0000 81.4729 -73.9246 -64.5889
8.9598 14.3958 23.2007 -177.0440 4.1212 192.2350 0.0000 0.0000 0.0000 -16.8340 -7.4147 -42.1186 9.9571 17.3857 59.3449 3.2960 3.4693 -35.6698 0.7638 -5.5811 -15.5736 0.0000 0.0000 0.0000 24.3688 12.3915 -34.5882 -7.7269 -15.9147 51.5731 -2.1985 -8.8862 -32.3181 -0.4317 4.2163 -11.6860 1.9067 -1.0472 18.7771 1.9608 -0.6194 -3.0914 1.3097 -0.3086 -14.1178 -2.3396 0.3805 -12.2170 3.7407 2.0748 -9.1836 1.6193 1.5885 -0.9130 -0.0000 -0.0000 0.0000 -74.0169 4.8986 11.9224 24.7428 -35.9399 -8.1385 -0.0000 -0.0000 4.0454 5.9234 -33.5963 -3.2858 -7.1250 0.0000 -0.0000 -14.6010 -2.8052 15.8103 -0.0000 -0.0000 0.0000 71.3784 1.7911 -7.8247 -21.0320 31.8656 -6.0668 0.0000 -0.0000 -6.9200 -20.4491 -58.5390 17.6438 7.1250 -0.0000 -0.0000 93.2899 -79.0921 -82.2584
8.9564 14.3290 23.2069 -177.0720 3.7903 192.6030 0.0000 0.0000 0.0000 -16.8314 -7.4412 -43.4214 10.3367 17.5949 60.6080 3.3849 2.7433 -35.8509 0.5235 -4.6368 -12.8754 0.0000 0.0000 0.0000 24.2243 12.3429 -35.8057 -8.1054 -16.1963 52.9416 -2.2808 -9.0557 -32.9037 -0.4828 4.4555 -12.3617 1.7189 -1.1733 19.2711 1.9253 -0.8192 -3.5407 1.4661 -0.3858 -14.9438 -1.6839 0.6923 -11.6569 3.3923 2.3644 -9.2500 1.3929 1.6927 -1.0228 0.0000 -0.0000 0.0000 -73.2596 6.2517 12.9190 25.3519 -36.5615 -8.4986 -0.0000 -0.0000 3.4490 7.8215 -34.9007 -4.4939 -7.1250 0.0000 -0.0000 -13.6507 -4.2991 15.0558 0.0000 -0.0000 0.0000 71.3641 2.0711 -8.4654 -20.9580 31.7793 -6.0278 0.0000 -0.0000 -8.4506 -25.9664 -59.1633 22.6927 7.1250 -0.0000 -0.0000 93.5986 80.7436 103.0064
8.9559 14.2590 23.2115 -176.9110 3.4953 192.9200 0.0000 0.0000 0.0000 -16.6000 -7.3845 -44.6444 10.7176 17.7941 61.8611 3.4263 2.4726 -35.9641 0.5099 -4.5770 -12.7060 0.0000 0.0000 0.0000 24.2898 12.3865 -36.8682 -8.4813 -16.4621 54.2783 -2.3817 -8.9928 -33.4429 -0.4558 4.3312 -12.0103 2.3531 -1.3352 16.7006 1.5200 -1.0625 -2.2040 0.6169 -0.5719 -11.8760 -1.0244 0.7016 -11.0817 3.3354 2.6210 -11.3911 1.2502 1.8866 -1.8052 0.0000 0.0000 0.0000 -71.8700 4.5827 13.1340 25.5822 -36.7932 -8.6362 -0.0000 -0.0000 3.3738 11.1466 -36.5944 -6.6995 -7.1250 0.0000 -0.0000 -12.0179 -6.4189 13.5729 0.0000 0.0000 0.0000 71.9739 4.9937 -9.8001 -20.7895 31.5818 -5.9393 0.0000 -0.0000 -9.5067 -30.9456 -60.1919 27.4854 7.1250 -0.0000 -0.0000 110.0579 81.4822 118.3402
8.9552 14.1887 23.2160 -176.8170 3.2211 193.1560 0.0000 0.0000 0.0000 -16.4416 -7.3006 -45.7094 11.0891 17.9784 63.0707 3.4613 2.1821 -36.0392 0.5087 -4.5718 -12.6912 0.0000 0.0000 0.0000 24.2820 12.3845 -37.8500 -8.8569 -16.7147 55.5939 -2.4896 -8.7989 -33.9339 -0.3899 4.0096 -11.1036 2.2227 -1.3126 17.2352 1.6220 -1.0228 -2.4900 0.8139 -0.5415 -12.5120 -0.8842 0.8539 -10.7276 3.0981 2.7995 -11.5778 1.1483 1.9667 -1.9222 -0.0000 0.0000 0.0000 -71.5202 5.3342 14.0094 25.9292 -37.1387 -8.8449 -0.0000 -0.0000 3.0007 14.4594 -38.1509 -9.0506 -7.1250 0.0000 -0.0000 -10.4587 -8.4961 12.0776 -0.0000 0.0000 0.0000 71.8202 5.8687 -10.9658 -20.5025 31.2429 -5.7897 0.0000 -0.0000 -10.2321 -36.9242 -61.2120 33.3691 7.1250 -0.0000 -0.0000 130.3025 81.2785 137.3172
8.9541 14.1260 23.2206 -176.9160 3.0016 193.2990 0.0000 0.0000 0.0000 -16.4821 -7.2362 -46.5536 11.4319 18.1400 64.1763 3.5159 1.6309 -36.1268 0.4644 -4.3713 -12.1236 0.0000 0.0000 0.0000 24.0829 12.2969 -38.7527 -9.2236 -16.9495 56.8602 -2.6051 -8.7020 -34.5153 -0.3615 3.8623 -10.6897 2.0857 -1.2374 17.3644 1.6512 -0.9432 -2.3881 0.9023 -0.4915 -12.4674 -1.1882 0.8789 -10.9838 3.1240 2.9151 -11.7089 1.2122 2.0572 -1.9316 0.0000 -0.0000 0.0000 -71.3022 5.3232 14.8192 25.9127 -37.1223 -8.8349 -0.0000 -0.0000 2.0111 16.9565 -39.2392 -10.9165 -7.1250 0.0000 -0.0000 -9.3247 -10.0396 10.9405 0.0000 -0.0000 0.0000 71.6921 7.5487 -12.1672 -20.1698 30.8464 -5.6182 0.0000 -0.0000 -11.4372 -44.5854 -61.7055 40.9537 7.1250 -0.0000 -0.0000 150.5992 80.0566 155.8490
